<?xml version="1.0" encoding="iso-8859-1"?>
<!-- Generator: Adobe Illustrator 19.0.0, SVG Export Plug-In . SVG Version: 6.00 Build 0)  -->
<svg version="1.1" id="Layer_1" xmlns="http://www.w3.org/2000/svg" xmlns:xlink="http://www.w3.org/1999/xlink" x="0px" y="0px"
	 viewBox="0 0 511.998 511.998" style="enable-background:new 0 0 511.998 511.998;" xml:space="preserve">
<g>
	<g>
		<path d="M289.135,397.618c-5.633,0-10.199,4.566-10.199,10.199v13.255c0,5.633,4.566,10.199,10.199,10.199
			c5.633,0,10.199-4.566,10.199-10.199v-13.255C299.334,402.184,294.768,397.618,289.135,397.618z"/>
	</g>
</g>
<g>
	<g>
		<path d="M412.899,49.401h-45.732c-13.383,0-24.271,10.888-24.271,24.271c0,2.136-1.737,3.873-3.873,3.873H323.78
			c-9.148,0-17.127,5.088-21.262,12.582l-0.441-0.441c-2.617-2.617-2.617-6.876,0-9.493c5.121-5.121,7.941-11.929,7.941-19.17
			c0-7.241-2.82-14.049-7.94-19.17L263.212,2.987c-3.983-3.983-10.441-3.983-14.425,0l-38.864,38.864
			c-5.121,5.121-7.94,11.929-7.94,19.17s2.82,14.049,7.94,19.169c2.617,2.617,2.617,6.876,0,9.493l-0.441,0.441
			c-4.136-7.493-12.116-12.582-21.262-12.582h-15.244c-2.136,0-3.873-1.737-3.873-3.873c0-13.383-10.888-24.271-24.271-24.271
			H99.099c-5.633,0-10.199,4.566-10.199,10.199v45.733c0,13.383,10.888,24.27,24.271,24.27c2.135,0,3.872,1.737,3.872,3.873v15.244
			c0,13.383,10.888,24.271,24.271,24.271h15.245c1.75,0,3.216,1.175,3.693,2.771v262.981c0,40.393,32.863,73.256,73.256,73.256
			h44.983c40.393,0,73.256-32.863,73.256-73.256V175.763c0.477-1.597,1.943-2.771,3.693-2.771h15.245
			c13.383,0,24.271-10.888,24.271-24.271v-15.244c0-2.136,1.737-3.873,3.872-3.873c13.383,0,24.271-10.888,24.271-24.27V59.601
			C423.099,53.967,418.532,49.401,412.899,49.401z M211.393,117.064l12.955-12.956c10.569-10.57,10.569-27.77,0-38.341
			c-1.268-1.268-1.965-2.954-1.965-4.746c-0.001-1.793,0.698-3.478,1.965-4.746L256,24.623l31.652,31.653
			c1.268,1.268,1.966,2.954,1.966,4.747c0,1.793-0.698,3.478-1.966,4.747c-10.569,10.57-10.569,27.77,0,38.341l12.956,12.955
			c1.268,1.268,1.966,2.954,1.966,4.746c0,1.793-0.699,3.479-1.966,4.747l-12.956,12.955c-10.569,10.57-10.569,27.77,0,38.341
			c2.617,2.617,2.617,6.875,0,9.492L256,218.998l-31.652-31.653c-2.617-2.617-2.617-6.875,0-9.493
			c10.569-10.57,10.569-27.77,0-38.34l-12.955-12.955c-1.268-1.268-1.966-2.954-1.966-4.747S210.125,118.331,211.393,117.064z
			 M180.227,171.504c-2.448-10.812-12.126-18.912-23.668-18.912h-15.245c-2.136,0-3.873-1.737-3.873-3.873v-15.244
			c0-13.383-10.888-24.271-24.27-24.271c-2.136,0-3.873-1.737-3.873-3.872V69.799h35.533c2.136,0,3.873,1.737,3.873,3.873
			c0,13.383,10.888,24.271,24.271,24.271h15.244c2.136,0,3.873,1.737,3.873,3.873v7.456c-2,3.825-3.065,8.1-3.065,12.54
			c0,7.241,2.82,14.049,7.941,19.17l12.955,12.954c2.617,2.617,2.617,6.876,0,9.493c-4.678,4.678-7.429,10.767-7.87,17.307h-17.351
			c-2.136,0-3.873-1.737-3.873-3.873c0-1.08-0.079-2.141-0.215-3.184C180.561,172.929,180.433,172.201,180.227,171.504z
			 M331.349,438.744c0,29.145-23.711,52.857-52.857,52.857h-44.983c-29.146,0-52.857-23.712-52.857-52.857V200.789
			c1.319,0.222,2.67,0.345,4.051,0.345h24.616c0.2,0.213,0.398,0.427,0.605,0.635l2.926,2.926c-0.116,0.617-0.184,1.251-0.184,1.903
			v214.473c0,5.633,4.566,10.199,10.199,10.199c5.633,0,10.199-4.566,10.199-10.199V224.911l15.724,15.723
			c1.992,1.992,4.602,2.987,7.212,2.987s5.221-0.996,7.212-2.987l15.724-15.723v143.145c0,5.633,4.566,10.199,10.199,10.199
			c5.633,0,10.199-4.566,10.199-10.199V206.599c0-0.651-0.067-1.286-0.184-1.903l2.926-2.926c0.208-0.208,0.405-0.422,0.605-0.635
			h24.616c1.381,0,2.733-0.122,4.051-0.345V438.744z M402.701,105.333H402.7c0,2.135-1.737,3.872-3.873,3.872
			c-13.383,0-24.27,10.888-24.27,24.271v15.244c0,2.136-1.737,3.873-3.873,3.873H355.44c-11.541,0-21.221,8.1-23.667,18.913
			c-0.206,0.697-0.335,1.425-0.388,2.174c-0.138,1.042-0.215,2.104-0.215,3.184c0,2.136-1.737,3.873-3.873,3.873h-17.351
			c-0.442-6.54-3.191-12.629-7.87-17.307c-2.617-2.617-2.617-6.876,0-9.493l12.956-12.955c5.121-5.121,7.941-11.929,7.941-19.17
			c0-4.445-1.067-8.724-3.072-12.552c0-0.043,0.006-0.084,0.006-0.126v-7.316c0-2.136,1.737-3.873,3.873-3.873h15.244
			c13.383,0,24.271-10.888,24.271-24.271c0-2.136,1.737-3.873,3.873-3.873h35.533V105.333z"/>
	</g>
</g>
<g>
</g>
<g>
</g>
<g>
</g>
<g>
</g>
<g>
</g>
<g>
</g>
<g>
</g>
<g>
</g>
<g>
</g>
<g>
</g>
<g>
</g>
<g>
</g>
<g>
</g>
<g>
</g>
<g>
</g>
</svg>
