<svg xmlns="http://www.w3.org/2000/svg" width="21.5" height="36.275" viewBox="0 0 21.5 36.275">
  <g id="Gruppe_12" data-name="Gruppe 12" transform="translate(-159.61 -631.042)">
    <path id="Pfad_11" data-name="Pfad 11" d="M43,38.01H61.814v8.05H43Z" transform="translate(117.95 594.382)" fill="#e6e9ed"/>
    <path id="Pfad_12" data-name="Pfad 12" d="M61.814,44V66.83a4.156,4.156,0,0,1-4.031,4.281H47.045A4.167,4.167,0,0,1,43,66.83V44Z" transform="translate(117.95 594.863)" fill="#47db83"/>
    <path id="Pfad_45" data-name="Pfad 45" d="M62.159,69.249A1.343,1.343,0,0,1,60.815,67.9V39.694H44.691V67.9A1.344,1.344,0,1,1,42,67.9V38.35a1.343,1.343,0,0,1,1.344-1.344H62.159A1.343,1.343,0,0,1,63.5,38.35V67.9A1.343,1.343,0,0,1,62.159,69.249Z" transform="translate(117.607 594.036)"/>
    <path id="Pfad_46" data-name="Pfad 46" d="M54.346,65.718a1.344,1.344,0,0,1,0-2.688,2.69,2.69,0,0,0,2.688-2.688,1.344,1.344,0,1,1,2.688,0A5.381,5.381,0,0,1,54.346,65.718Z" transform="translate(121.389 601.598)"/>
    <path id="Pfad_47" data-name="Pfad 47" d="M47.38,65.719A5.383,5.383,0,0,1,42,60.343a1.344,1.344,0,0,1,2.688,0,2.691,2.691,0,0,0,2.689,2.689,1.344,1.344,0,1,1,0,2.688Z" transform="translate(117.607 601.598)"/>
    <path id="Pfad_48" data-name="Pfad 48" d="M57.1,64.687H46.348a1.344,1.344,0,1,1,0-2.688H57.1a1.344,1.344,0,1,1,0,2.688Z" transform="translate(118.639 602.63)"/>
  </g>
</svg>
